<svg width="230" height="221" viewBox="0 0 230 221" fill="none" xmlns="http://www.w3.org/2000/svg">
<rect width="159.362" height="159.362" rx="36.1062" transform="matrix(0.72074 -0.693206 0.72074 0.693206 0 110.471)" fill="#11D4B1"/>
<mask id="mask0_1_1284" style="mask-type:alpha" maskUnits="userSpaceOnUse" x="53" y="51" width="123" height="118">
<path d="M53.875 51.8159H175.701V168.988H53.875V51.8159Z" fill="#D9D9D9"/>
</mask>
<g mask="url(#mask0_1_1284)">
<path d="M84.6768 102.068L94.5752 106.096C95.7596 103.818 96.9863 101.621 98.2553 99.5051C99.5243 97.3895 100.92 95.2738 102.443 93.1582L95.3366 91.8156L84.6768 102.068ZM102.697 112.199L117.164 125.991C120.717 124.689 124.524 122.695 128.585 120.01C132.646 117.325 136.453 114.274 140.006 110.856C145.928 105.16 150.561 98.8346 153.905 91.8791C157.245 84.9204 158.703 78.5117 158.28 72.6531C152.189 72.2463 145.505 73.6491 138.23 76.8615C130.954 80.0773 124.355 84.5331 118.433 90.2289C114.88 93.6464 111.707 97.3081 108.915 101.214C106.123 105.12 104.051 108.781 102.697 112.199ZM127.697 143.445L138.356 133.192L136.961 126.357C134.761 127.822 132.561 129.143 130.362 130.321C128.162 131.503 125.878 132.663 123.509 133.802L127.697 143.445ZM162.189 63.1712C165.317 63.3819 167.808 65.8388 168.028 68.966C168.589 76.9849 167.393 84.8244 164.437 92.4845C160.84 101.803 154.642 110.693 145.844 119.156L148.382 131.239C148.72 132.867 148.636 134.453 148.128 135.999C147.62 137.545 146.774 138.888 145.59 140.027L129.471 155.53C126.943 157.962 122.767 157.142 121.346 153.936L113.611 136.488L92.6047 116.284C92.1458 115.843 91.6077 115.492 91.0187 115.251L74.0636 108.297C70.6903 106.914 69.8465 102.523 72.4667 99.9876L88.1031 84.8585C89.2875 83.7194 90.7055 82.9057 92.3569 82.4174C94.0049 81.9292 95.675 81.8479 97.367 82.1733L109.93 84.6144C118.729 76.152 127.95 70.1713 137.595 66.6724C145.59 63.7721 153.788 62.605 162.189 63.1712ZM75.9205 131.117C78.8816 128.269 82.4974 126.824 86.7681 126.782C91.0422 126.743 94.6598 128.147 97.6208 130.995C100.582 133.843 102.04 137.321 101.996 141.428C101.956 145.539 100.455 149.018 97.4939 151.866C95.3789 153.901 91.8476 155.65 86.9001 157.115C82.8772 158.305 77.612 159.387 71.1045 160.363C68.7439 160.716 66.7309 158.682 67.1147 156.326C68.1214 150.146 69.2377 145.14 70.4637 141.306C71.9865 136.548 73.8055 133.151 75.9205 131.117ZM83.1539 137.952C82.3079 138.766 81.4619 140.252 80.6159 142.41C79.7699 144.564 79.1777 146.74 78.8393 148.937C81.1235 148.612 83.3874 148.063 85.6311 147.292C87.8713 146.517 89.4145 145.723 90.2605 144.909C91.2757 143.933 91.8256 142.753 91.9102 141.37C91.9948 139.986 91.5295 138.807 90.5143 137.83C89.4991 136.854 88.2723 136.385 86.8341 136.424C85.3959 136.466 84.1692 136.976 83.1539 137.952Z" fill="#F8F8F8"/>
</g>
<rect x="112.352" y="97.7473" width="19.9795" height="19.2162" rx="9.60812" fill="#F8F8F8"/>
<rect x="132.331" y="82.2805" width="16.0811" height="15.4667" rx="7.73336" fill="#F8F8F8"/>
</svg>
